<?xml version="1.0" encoding="UTF-8"?>
<svg version="1.1" xmlns="http://www.w3.org/2000/svg" width="512" height="512">
<path d="M0 0 C2.36527818 1.15121631 4.51916468 2.32094985 6.75 3.6875 C8.00122734 4.42590792 9.25252933 5.16418936 10.50390625 5.90234375 C11.66971102 6.60082833 12.83511613 7.29998068 14 8 C18.56526932 10.71658221 22.95438685 13.06329837 27.98828125 14.796875 C35.39835409 17.44434296 42.51306158 20.70465472 49.68359375 23.93359375 C58.83877413 28.0189091 68.03256694 31.54621519 77.6875 34.25 C84.84449603 36.29273796 91.8891762 38.61125616 98.9375 41 C106.12632731 43.42417232 113.31623931 45.77456519 120.625 47.8125 C121.27331787 47.99490234 121.92163574 48.17730469 122.58959961 48.36523438 C128.055578 49.84929714 133.58673317 51.00165534 139.12695312 52.17211914 C143.14225041 53.03040665 147.14784895 53.9250425 151.15234375 54.83203125 C170.70659974 59.24788264 190.29213257 63.32751633 210 67 C211.64271603 76.68107311 213.14383904 86.352095 214.125 96.125 C214.23787354 97.22956543 214.23787354 97.22956543 214.35302734 98.35644531 C215.74754617 112.96598856 216.23968949 127.58059682 216.25 142.25 C216.25067474 143.12929169 216.25134949 144.00858337 216.25204468 144.91452026 C216.2087167 181.00591955 212.42050816 217.07026895 203.70214844 252.13574219 C202.92004529 255.32615738 202.18262836 258.52551064 201.4453125 261.7265625 C197.779761 277.357068 193.02579079 292.13062036 187 307 C186.20802953 309.00639053 185.41636507 311.01290187 184.625 313.01953125 C178.96373398 327.16984111 172.31617418 340.63750974 165 354 C164.61569824 354.70898438 164.23139648 355.41796875 163.83544922 356.1484375 C158.59133873 365.78966325 152.76146679 375.10029936 145.859375 383.65234375 C144.33657723 385.57503589 143.138728 387.34455057 142 389.5 C140.27515402 392.60336462 138.39924417 395.36083142 136 398 C135.34 398 134.68 398 134 398 C133.60941406 398.85271484 133.60941406 398.85271484 133.2109375 399.72265625 C131.89547256 402.19657903 130.36625331 404.24382498 128.625 406.4375 C128.00109375 407.22511719 127.3771875 408.01273437 126.734375 408.82421875 C126.16203125 409.54222656 125.5896875 410.26023437 125 411 C123.948125 412.36125 123.948125 412.36125 122.875 413.75 C120.71916576 416.33700109 118.40898359 418.64454937 116 421 C114.49863326 422.49863201 112.99875673 423.99875776 111.5 425.5 C110.71753906 426.28117187 109.93507813 427.06234375 109.12890625 427.8671875 C107.55544178 429.44353907 105.99332096 431.03123219 104.4375 432.625 C100.26517751 436.69033986 95.88179317 440.51207052 91.3125 444.125 C88.92337347 445.98715784 88.92337347 445.98715784 86.72265625 448.33984375 C84.00021447 450.99979045 81.19890962 453.19793728 78.125 455.4375 C74.81586735 457.87411529 71.59065929 460.28478998 68.5625 463.0625 C64.61121018 466.53773081 60.11110139 469.08231393 55.61328125 471.78515625 C51.72708113 474.13825844 47.95680302 476.65266843 44.1875 479.1875 C42.9089272 480.0430779 41.63028411 480.89855077 40.3515625 481.75390625 C38.51012315 482.98675141 36.67108771 484.22263918 34.8359375 485.46484375 C29.2327048 489.13039466 23.18991269 491.99098638 17.18359375 494.92578125 C14.45445044 496.26287831 11.76619751 497.65132092 9.09765625 499.10546875 C8.17170654 499.59974365 8.17170654 499.59974365 7.22705078 500.10400391 C5.53998858 501.00760639 3.86148346 501.92713332 2.18359375 502.84765625 C-2.94819918 504.70517639 -5.99481592 503.90562905 -10.79956055 501.7355957 C-14.08817627 500.09064898 -17.32771126 498.37333078 -20.5625 496.625 C-22.77203958 495.45034054 -24.98167202 494.27585574 -27.19140625 493.1015625 C-28.16279541 492.57900879 -29.13418457 492.05645508 -30.13500977 491.51806641 C-32.10375456 490.4748917 -34.08882432 489.46213353 -36.08642578 488.4753418 C-38.63127874 487.18670878 -41.01958877 485.81989646 -43.42578125 484.29296875 C-44.22306641 483.78830078 -45.02035156 483.28363281 -45.84179688 482.76367188 C-46.65712891 482.24353516 -47.47246094 481.72339844 -48.3125 481.1875 C-49.5180957 480.42469727 -49.5180957 480.42469727 -50.74804688 479.64648438 C-59.05110699 474.37607856 -67.19509221 468.98641737 -75 463 C-76.02609375 462.22269531 -77.0521875 461.44539063 -78.109375 460.64453125 C-87.31451632 453.65023173 -95.87564266 446.15335298 -104.38671875 438.33203125 C-106.09334201 436.80908045 -107.84444437 435.33418809 -109.640625 433.91796875 C-111.73772918 432.2132036 -113.35415818 430.57734366 -115.0625 428.5 C-118.21521679 424.794175 -121.59035773 421.40033785 -125.0625 418 C-128.84801103 414.26930963 -132.32605076 410.54093348 -135.37890625 406.18359375 C-137.15166391 403.79571054 -139.07491718 401.564708 -141.02587891 399.3215332 C-145.42612442 394.25738844 -149.26011677 389.31124895 -152.5546875 383.4375 C-154.14086474 380.76243352 -155.93271507 378.35189308 -157.8125 375.875 C-162.50590899 369.53934656 -166.24039782 362.75850529 -169.99658203 355.84375 C-170.86129559 354.25486514 -171.73988902 352.67354836 -172.62109375 351.09375 C-180.09255594 337.64916764 -186.46148854 324.01832659 -191.96142578 309.66162109 C-192.98664068 307.03423679 -194.06364249 304.43366028 -195.15234375 301.83203125 C-200.4311351 288.90447417 -204.03604074 275.79843999 -207.3125 262.25 C-207.62281158 260.96822372 -207.62281158 260.96822372 -207.93939209 259.66055298 C-221.57376866 202.92375595 -235.06781774 124.20345321 -216 67 C-213.66503906 66.16723633 -213.66503906 66.16723633 -210.515625 65.51953125 C-208.74155273 65.14755615 -208.74155273 65.14755615 -206.93164062 64.76806641 C-205.62145567 64.51019856 -204.31089613 64.25422784 -203 64 C-202.3392749 63.86978455 -201.6785498 63.73956909 -200.99780273 63.60540771 C-196.68916051 62.75835786 -192.37559232 61.93865888 -188.06060791 61.12463379 C-173.54751992 58.37896625 -159.18403174 55.27220102 -144.85449219 51.67822266 C-141.69382549 50.92725344 -138.51926603 50.2807666 -135.3359375 49.6328125 C-127.9644812 48.07182189 -120.80850118 45.9931023 -113.61376953 43.77587891 C-111.503694 43.12613747 -109.39081678 42.48624905 -107.27734375 41.84765625 C-99.46129974 39.46996902 -91.75016704 36.90986137 -84.08056641 34.09057617 C-81.03635646 33.01287084 -77.97823322 32.07912427 -74.875 31.1875 C-62.17860775 27.35374831 -49.88480796 22.03531747 -37.91796875 16.34765625 C-35.08247981 15.03809308 -32.22017465 13.88847561 -29.3125 12.75 C-22.96177859 10.17744841 -17.11076097 6.79528956 -11.22973633 3.30175781 C-4.01399179 -0.88031898 -4.01399179 -0.88031898 0 0 Z " fill="#010101" transform="translate(259,4)"/>
<path d="M0 0 C2.36527818 1.15121631 4.51916468 2.32094985 6.75 3.6875 C8.00122734 4.42590792 9.25252933 5.16418936 10.50390625 5.90234375 C11.66971102 6.60082833 12.83511613 7.29998068 14 8 C18.56526932 10.71658221 22.95438685 13.06329837 27.98828125 14.796875 C35.39835409 17.44434296 42.51306158 20.70465472 49.68359375 23.93359375 C58.83877413 28.0189091 68.03256694 31.54621519 77.6875 34.25 C84.84449603 36.29273796 91.8891762 38.61125616 98.9375 41 C106.12632731 43.42417232 113.31623931 45.77456519 120.625 47.8125 C121.27331787 47.99490234 121.92163574 48.17730469 122.58959961 48.36523438 C128.055578 49.84929714 133.58673317 51.00165534 139.12695312 52.17211914 C143.14225041 53.03040665 147.14784895 53.9250425 151.15234375 54.83203125 C170.70659974 59.24788264 190.29213257 63.32751633 210 67 C211.64271603 76.68107311 213.14383904 86.352095 214.125 96.125 C214.23787354 97.22956543 214.23787354 97.22956543 214.35302734 98.35644531 C215.74754617 112.96598856 216.23968949 127.58059682 216.25 142.25 C216.25067474 143.12929169 216.25134949 144.00858337 216.25204468 144.91452026 C216.2087167 181.00591955 212.42050816 217.07026895 203.70214844 252.13574219 C202.92004529 255.32615738 202.18262836 258.52551064 201.4453125 261.7265625 C197.779761 277.357068 193.02579079 292.13062036 187 307 C186.20802953 309.00639053 185.41636507 311.01290187 184.625 313.01953125 C178.96373398 327.16984111 172.31617418 340.63750974 165 354 C164.61569824 354.70898438 164.23139648 355.41796875 163.83544922 356.1484375 C158.59133873 365.78966325 152.76146679 375.10029936 145.859375 383.65234375 C144.33657723 385.57503589 143.138728 387.34455057 142 389.5 C140.27515402 392.60336462 138.39924417 395.36083142 136 398 C135.34 398 134.68 398 134 398 C133.60941406 398.85271484 133.60941406 398.85271484 133.2109375 399.72265625 C131.89547256 402.19657903 130.36625331 404.24382498 128.625 406.4375 C128.00109375 407.22511719 127.3771875 408.01273437 126.734375 408.82421875 C126.16203125 409.54222656 125.5896875 410.26023437 125 411 C123.948125 412.36125 123.948125 412.36125 122.875 413.75 C120.71916576 416.33700109 118.40898359 418.64454937 116 421 C114.49863326 422.49863201 112.99875673 423.99875776 111.5 425.5 C110.71753906 426.28117187 109.93507813 427.06234375 109.12890625 427.8671875 C107.55544178 429.44353907 105.99332096 431.03123219 104.4375 432.625 C100.26517751 436.69033986 95.88179317 440.51207052 91.3125 444.125 C88.92337347 445.98715784 88.92337347 445.98715784 86.72265625 448.33984375 C84.00021447 450.99979045 81.19890962 453.19793728 78.125 455.4375 C74.81586735 457.87411529 71.59065929 460.28478998 68.5625 463.0625 C64.61121018 466.53773081 60.11110139 469.08231393 55.61328125 471.78515625 C51.72708113 474.13825844 47.95680302 476.65266843 44.1875 479.1875 C42.9089272 480.0430779 41.63028411 480.89855077 40.3515625 481.75390625 C38.51012315 482.98675141 36.67108771 484.22263918 34.8359375 485.46484375 C29.2327048 489.13039466 23.18991269 491.99098638 17.18359375 494.92578125 C14.45445044 496.26287831 11.76619751 497.65132092 9.09765625 499.10546875 C8.17170654 499.59974365 8.17170654 499.59974365 7.22705078 500.10400391 C5.53998858 501.00760639 3.86148346 501.92713332 2.18359375 502.84765625 C-2.94819918 504.70517639 -5.99481592 503.90562905 -10.79956055 501.7355957 C-14.08817627 500.09064898 -17.32771126 498.37333078 -20.5625 496.625 C-22.77203958 495.45034054 -24.98167202 494.27585574 -27.19140625 493.1015625 C-28.16279541 492.57900879 -29.13418457 492.05645508 -30.13500977 491.51806641 C-32.10375456 490.4748917 -34.08882432 489.46213353 -36.08642578 488.4753418 C-38.63127874 487.18670878 -41.01958877 485.81989646 -43.42578125 484.29296875 C-44.22306641 483.78830078 -45.02035156 483.28363281 -45.84179688 482.76367188 C-46.65712891 482.24353516 -47.47246094 481.72339844 -48.3125 481.1875 C-49.5180957 480.42469727 -49.5180957 480.42469727 -50.74804688 479.64648438 C-59.05110699 474.37607856 -67.19509221 468.98641737 -75 463 C-76.02609375 462.22269531 -77.0521875 461.44539063 -78.109375 460.64453125 C-87.31451632 453.65023173 -95.87564266 446.15335298 -104.38671875 438.33203125 C-106.09334201 436.80908045 -107.84444437 435.33418809 -109.640625 433.91796875 C-111.73772918 432.2132036 -113.35415818 430.57734366 -115.0625 428.5 C-118.21521679 424.794175 -121.59035773 421.40033785 -125.0625 418 C-128.84801103 414.26930963 -132.32605076 410.54093348 -135.37890625 406.18359375 C-137.15166391 403.79571054 -139.07491718 401.564708 -141.02587891 399.3215332 C-145.42612442 394.25738844 -149.26011677 389.31124895 -152.5546875 383.4375 C-154.14086474 380.76243352 -155.93271507 378.35189308 -157.8125 375.875 C-162.50590899 369.53934656 -166.24039782 362.75850529 -169.99658203 355.84375 C-170.86129559 354.25486514 -171.73988902 352.67354836 -172.62109375 351.09375 C-180.09255594 337.64916764 -186.46148854 324.01832659 -191.96142578 309.66162109 C-192.98664068 307.03423679 -194.06364249 304.43366028 -195.15234375 301.83203125 C-200.4311351 288.90447417 -204.03604074 275.79843999 -207.3125 262.25 C-207.62281158 260.96822372 -207.62281158 260.96822372 -207.93939209 259.66055298 C-221.57376866 202.92375595 -235.06781774 124.20345321 -216 67 C-213.66503906 66.16723633 -213.66503906 66.16723633 -210.515625 65.51953125 C-208.74155273 65.14755615 -208.74155273 65.14755615 -206.93164062 64.76806641 C-205.62145567 64.51019856 -204.31089613 64.25422784 -203 64 C-202.3392749 63.86978455 -201.6785498 63.73956909 -200.99780273 63.60540771 C-196.68916051 62.75835786 -192.37559232 61.93865888 -188.06060791 61.12463379 C-173.54751992 58.37896625 -159.18403174 55.27220102 -144.85449219 51.67822266 C-141.69382549 50.92725344 -138.51926603 50.2807666 -135.3359375 49.6328125 C-127.9644812 48.07182189 -120.80850118 45.9931023 -113.61376953 43.77587891 C-111.503694 43.12613747 -109.39081678 42.48624905 -107.27734375 41.84765625 C-99.46129974 39.46996902 -91.75016704 36.90986137 -84.08056641 34.09057617 C-81.03635646 33.01287084 -77.97823322 32.07912427 -74.875 31.1875 C-62.17860775 27.35374831 -49.88480796 22.03531747 -37.91796875 16.34765625 C-35.08247981 15.03809308 -32.22017465 13.88847561 -29.3125 12.75 C-22.96177859 10.17744841 -17.11076097 6.79528956 -11.22973633 3.30175781 C-4.01399179 -0.88031898 -4.01399179 -0.88031898 0 0 Z M-10.078125 59.37890625 C-11.0669165 59.88502441 -12.05570801 60.39114258 -13.07446289 60.91259766 C-14.12239014 61.45706543 -15.17031738 62.0015332 -16.25 62.5625 C-39.68169205 74.50793051 -39.68169205 74.50793051 -48.17626953 76.89111328 C-52.3656891 78.10605031 -56.42557746 79.54806262 -60.51953125 81.046875 C-78.5837457 87.57463494 -96.32174745 93.71428852 -115.20947266 97.4296875 C-118.15750781 98.03219057 -121.07724887 98.71923103 -124.00390625 99.41796875 C-133.54562712 101.64462989 -143.19574998 103.33027483 -152.83056641 105.09863281 C-155.30953669 105.55467648 -157.78760689 106.01537773 -160.265625 106.4765625 C-161.02901184 106.61510651 -161.79239868 106.75365051 -162.57891846 106.89639282 C-166.08510363 107.29944728 -166.08510363 107.29944728 -169 109 C-169.28766128 110.76889094 -169.51587414 112.5475168 -169.71875 114.328125 C-169.91017578 115.99488281 -169.91017578 115.99488281 -170.10546875 117.6953125 C-170.23566406 118.86835937 -170.36585938 120.04140625 -170.5 121.25 C-170.63019531 122.37664062 -170.76039063 123.50328125 -170.89453125 124.6640625 C-172.47261986 138.59587511 -173.23990401 152.36347955 -173.25 166.375 C-173.25067474 167.22427063 -173.25134949 168.07354126 -173.25204468 168.94854736 C-173.22060219 194.10429821 -170.51494017 218.43265127 -165 243 C-164.64151437 244.66108918 -164.28465125 246.32252965 -163.9296875 247.984375 C-163.13934851 251.66054952 -162.30872725 255.32576893 -161.45751953 258.98828125 C-161.01955307 260.91402493 -160.61636037 262.84757791 -160.21484375 264.78125 C-153.67680773 294.21761683 -139.04180454 324.28425942 -122 349 C-121.37279053 349.9290918 -121.37279053 349.9290918 -120.73291016 350.87695312 C-117.93902587 355.00987813 -115.02473542 359.03316962 -112 363 C-111.5246582 363.62487305 -111.04931641 364.24974609 -110.55957031 364.89355469 C-103.26399931 374.36327145 -95.24324206 383.04275743 -86.8125 391.5 C-85.91047852 392.4075 -85.00845703 393.315 -84.07910156 394.25 C-78.02262084 400.24258915 -71.68989868 405.72709402 -65 411 C-64.41758545 411.46212891 -63.8351709 411.92425781 -63.23510742 412.40039062 C-34.85422849 435.08057435 -34.85422849 435.08057435 -2 447 C0.32158065 446.65340705 0.32158065 446.65340705 2 446 C2 445.34 2 444.68 2 444 C2.67160156 443.91105469 3.34320313 443.82210938 4.03515625 443.73046875 C7.81110962 442.8001614 11.03418745 441.13891231 14.4375 439.3125 C15.16614258 438.92312256 15.89478516 438.53374512 16.64550781 438.13256836 C31.54930097 430.00591828 45.84682673 420.73504113 59 410 C59.92554688 409.26523437 60.85109375 408.53046875 61.8046875 407.7734375 C76.17177782 396.25534526 89.73584202 383.5895435 101 369 C101.60972656 368.26910156 102.21945312 367.53820312 102.84765625 366.78515625 C109.04303711 359.3430663 114.33079083 351.31440712 119.58203125 343.19287109 C120.45140473 341.84839578 121.32534792 340.5068452 122.20703125 339.17041016 C133.47793062 322.02012379 141.50517425 302.60282177 148.6875 283.4375 C149.09734131 282.35114258 149.50718262 281.26478516 149.92944336 280.14550781 C152.05030686 274.31075858 153.57617192 268.67654593 154.56323242 262.54907227 C155.09091549 259.46939707 155.87603771 256.50739289 156.70019531 253.49633789 C159.34582106 243.79043579 161.15046113 233.98370927 162.75 224.0625 C163.06578003 222.12648926 163.06578003 222.12648926 163.38793945 220.15136719 C165.3744002 207.48290285 166.1577538 194.9502116 166.203125 182.125 C166.20882507 180.83924072 166.21452515 179.55348145 166.22039795 178.22875977 C166.23080413 175.52278257 166.23671338 172.81683413 166.24023438 170.11083984 C166.24460343 167.38446558 166.25845514 164.65841055 166.28125 161.93212891 C166.41433166 145.69396154 165.93011325 129.99979046 163 114 C162.6647091 112.00032725 162.33047826 110.00047375 162 108 C161.154375 107.87882812 160.30875 107.75765625 159.4375 107.6328125 C153.97044421 106.82517926 148.60279567 105.99379256 143.2578125 104.5625 C135.63304179 102.66290314 127.83572384 101.32742208 120.10595703 99.92480469 C99.98783348 96.24532535 80.04991605 91.10211769 60.94848633 83.72241211 C58.77886999 82.91801482 56.58954748 82.21555511 54.3828125 81.51953125 C41.70555803 77.44731052 29.76526186 72.32374226 17.75 66.625 C16.9896344 66.26475739 16.2292688 65.90451477 15.44586182 65.53335571 C13.26875862 64.49859462 11.09445239 63.45828922 8.921875 62.4140625 C8.26659821 62.09975784 7.61132141 61.78545319 6.93618774 61.46162415 C4.14970208 60.10924688 1.58293057 58.72195371 -1 57 C-5.14001576 57 -6.51263041 57.52814249 -10.078125 59.37890625 Z " fill="#FCFCFC" transform="translate(259,4)"/>
<path d="M0 0 C2.36527818 1.15121631 4.51916468 2.32094985 6.75 3.6875 C8.00122734 4.42590792 9.25252933 5.16418936 10.50390625 5.90234375 C11.66971102 6.60082833 12.83511613 7.29998068 14 8 C18.56526932 10.71658221 22.95438685 13.06329837 27.98828125 14.796875 C35.39835409 17.44434296 42.51306158 20.70465472 49.68359375 23.93359375 C58.83877413 28.0189091 68.03256694 31.54621519 77.6875 34.25 C84.84449603 36.29273796 91.8891762 38.61125616 98.9375 41 C106.12632731 43.42417232 113.31623931 45.77456519 120.625 47.8125 C121.27331787 47.99490234 121.92163574 48.17730469 122.58959961 48.36523438 C128.055578 49.84929714 133.58673317 51.00165534 139.12695312 52.17211914 C143.14225041 53.03040665 147.14784895 53.9250425 151.15234375 54.83203125 C170.70659974 59.24788264 190.29213257 63.32751633 210 67 C211.64271603 76.68107311 213.14383904 86.352095 214.125 96.125 C214.23787354 97.22956543 214.23787354 97.22956543 214.35302734 98.35644531 C215.74754617 112.96598856 216.23968949 127.58059682 216.25 142.25 C216.25067474 143.12929169 216.25134949 144.00858337 216.25204468 144.91452026 C216.2087167 181.00591955 212.42050816 217.07026895 203.70214844 252.13574219 C202.92004529 255.32615738 202.18262836 258.52551064 201.4453125 261.7265625 C197.779761 277.357068 193.02579079 292.13062036 187 307 C186.20802953 309.00639053 185.41636507 311.01290187 184.625 313.01953125 C178.96373398 327.16984111 172.31617418 340.63750974 165 354 C164.61569824 354.70898438 164.23139648 355.41796875 163.83544922 356.1484375 C158.59133873 365.78966325 152.76146679 375.10029936 145.859375 383.65234375 C144.33657723 385.57503589 143.138728 387.34455057 142 389.5 C140.27515402 392.60336462 138.39924417 395.36083142 136 398 C135.34 398 134.68 398 134 398 C133.60941406 398.85271484 133.60941406 398.85271484 133.2109375 399.72265625 C131.89547256 402.19657903 130.36625331 404.24382498 128.625 406.4375 C128.00109375 407.22511719 127.3771875 408.01273437 126.734375 408.82421875 C126.16203125 409.54222656 125.5896875 410.26023437 125 411 C123.948125 412.36125 123.948125 412.36125 122.875 413.75 C120.71916576 416.33700109 118.40898359 418.64454937 116 421 C114.49863326 422.49863201 112.99875673 423.99875776 111.5 425.5 C110.71753906 426.28117187 109.93507813 427.06234375 109.12890625 427.8671875 C107.55544178 429.44353907 105.99332096 431.03123219 104.4375 432.625 C100.26517751 436.69033986 95.88179317 440.51207052 91.3125 444.125 C88.92337347 445.98715784 88.92337347 445.98715784 86.72265625 448.33984375 C84.00021447 450.99979045 81.19890962 453.19793728 78.125 455.4375 C74.81586735 457.87411529 71.59065929 460.28478998 68.5625 463.0625 C64.61121018 466.53773081 60.11110139 469.08231393 55.61328125 471.78515625 C51.72708113 474.13825844 47.95680302 476.65266843 44.1875 479.1875 C42.9089272 480.0430779 41.63028411 480.89855077 40.3515625 481.75390625 C38.51012315 482.98675141 36.67108771 484.22263918 34.8359375 485.46484375 C29.2327048 489.13039466 23.18991269 491.99098638 17.18359375 494.92578125 C14.45445044 496.26287831 11.76619751 497.65132092 9.09765625 499.10546875 C8.17170654 499.59974365 8.17170654 499.59974365 7.22705078 500.10400391 C5.53998858 501.00760639 3.86148346 501.92713332 2.18359375 502.84765625 C-2.94819918 504.70517639 -5.99481592 503.90562905 -10.79956055 501.7355957 C-14.08817627 500.09064898 -17.32771126 498.37333078 -20.5625 496.625 C-22.77203958 495.45034054 -24.98167202 494.27585574 -27.19140625 493.1015625 C-28.16279541 492.57900879 -29.13418457 492.05645508 -30.13500977 491.51806641 C-32.10375456 490.4748917 -34.08882432 489.46213353 -36.08642578 488.4753418 C-38.63127874 487.18670878 -41.01958877 485.81989646 -43.42578125 484.29296875 C-44.22306641 483.78830078 -45.02035156 483.28363281 -45.84179688 482.76367188 C-46.65712891 482.24353516 -47.47246094 481.72339844 -48.3125 481.1875 C-49.5180957 480.42469727 -49.5180957 480.42469727 -50.74804688 479.64648438 C-59.05110699 474.37607856 -67.19509221 468.98641737 -75 463 C-76.02609375 462.22269531 -77.0521875 461.44539063 -78.109375 460.64453125 C-87.31451632 453.65023173 -95.87564266 446.15335298 -104.38671875 438.33203125 C-106.09334201 436.80908045 -107.84444437 435.33418809 -109.640625 433.91796875 C-111.73772918 432.2132036 -113.35415818 430.57734366 -115.0625 428.5 C-118.21521679 424.794175 -121.59035773 421.40033785 -125.0625 418 C-128.84801103 414.26930963 -132.32605076 410.54093348 -135.37890625 406.18359375 C-137.15166391 403.79571054 -139.07491718 401.564708 -141.02587891 399.3215332 C-145.42612442 394.25738844 -149.26011677 389.31124895 -152.5546875 383.4375 C-154.14086474 380.76243352 -155.93271507 378.35189308 -157.8125 375.875 C-162.50590899 369.53934656 -166.24039782 362.75850529 -169.99658203 355.84375 C-170.86129559 354.25486514 -171.73988902 352.67354836 -172.62109375 351.09375 C-180.09255594 337.64916764 -186.46148854 324.01832659 -191.96142578 309.66162109 C-192.98664068 307.03423679 -194.06364249 304.43366028 -195.15234375 301.83203125 C-200.4311351 288.90447417 -204.03604074 275.79843999 -207.3125 262.25 C-207.62281158 260.96822372 -207.62281158 260.96822372 -207.93939209 259.66055298 C-221.57376866 202.92375595 -235.06781774 124.20345321 -216 67 C-213.66503906 66.16723633 -213.66503906 66.16723633 -210.515625 65.51953125 C-208.74155273 65.14755615 -208.74155273 65.14755615 -206.93164062 64.76806641 C-205.62145567 64.51019856 -204.31089613 64.25422784 -203 64 C-202.3392749 63.86978455 -201.6785498 63.73956909 -200.99780273 63.60540771 C-196.68916051 62.75835786 -192.37559232 61.93865888 -188.06060791 61.12463379 C-173.54751992 58.37896625 -159.18403174 55.27220102 -144.85449219 51.67822266 C-141.69382549 50.92725344 -138.51926603 50.2807666 -135.3359375 49.6328125 C-127.9644812 48.07182189 -120.80850118 45.9931023 -113.61376953 43.77587891 C-111.503694 43.12613747 -109.39081678 42.48624905 -107.27734375 41.84765625 C-99.46129974 39.46996902 -91.75016704 36.90986137 -84.08056641 34.09057617 C-81.03635646 33.01287084 -77.97823322 32.07912427 -74.875 31.1875 C-62.17860775 27.35374831 -49.88480796 22.03531747 -37.91796875 16.34765625 C-35.08247981 15.03809308 -32.22017465 13.88847561 -29.3125 12.75 C-22.96177859 10.17744841 -17.11076097 6.79528956 -11.22973633 3.30175781 C-4.01399179 -0.88031898 -4.01399179 -0.88031898 0 0 Z M-8.80078125 14.703125 C-9.87694702 15.30000122 -9.87694702 15.30000122 -10.97485352 15.90893555 C-12.13198853 16.57276245 -12.13198853 16.57276245 -13.3125 17.25 C-20.77580508 21.34892243 -28.32129121 25.14004324 -36.0625 28.6875 C-37.44078979 29.32703613 -37.44078979 29.32703613 -38.84692383 29.97949219 C-53.71441236 36.75585683 -69.03740987 42.17247464 -84.57592773 47.17993164 C-87.30220588 48.05918006 -90.02525235 48.94792047 -92.74804688 49.83789062 C-101.92015046 52.82092177 -111.12154722 55.67617051 -120.390625 58.34375 C-121.246064 58.59113419 -122.10150299 58.83851837 -122.98286438 59.09339905 C-129.04427883 60.81265561 -135.0657029 62.03214709 -141.27734375 63.09375 C-147.08480392 64.14704468 -152.80342731 65.58820889 -158.54034424 66.9670105 C-171.51691915 70.08252823 -184.50279976 72.65775097 -197.70532227 74.63037109 C-200.15147795 75.02440021 -202.57343537 75.50024739 -205 76 C-209.57687875 98.12158064 -210.35045382 119.78975754 -210.31567383 142.30395508 C-210.31104771 145.55084098 -210.31795567 148.79735185 -210.33618164 152.04418945 C-210.44123369 170.9341241 -210.03793234 189.30087064 -207 208 C-206.81091064 209.27415771 -206.62182129 210.54831543 -206.42700195 211.86108398 C-205.98465072 214.78942709 -205.50547695 217.70699538 -205 220.625 C-204.83193848 221.61516113 -204.66387695 222.60532227 -204.49072266 223.62548828 C-203.38277828 230.05535348 -202.15343034 236.44074849 -200.7109375 242.8046875 C-200.11801706 245.46957169 -199.56481612 248.13537202 -199.03125 250.8125 C-198.85899902 251.67601074 -198.68674805 252.53952148 -198.50927734 253.42919922 C-198.19079694 255.03686876 -197.87549264 256.64517451 -197.56494141 258.25439453 C-194.22209087 275.2028356 -188.07678095 291.04276175 -181.76345825 307.05944824 C-180.98556211 309.0366981 -180.21521988 311.01679281 -179.44506836 312.99707031 C-176.76535097 319.84521345 -173.95945177 326.53392256 -170.4375 333 C-169.80968628 334.16776978 -169.80968628 334.16776978 -169.16918945 335.35913086 C-167.7893405 337.91158766 -166.3946335 340.45559592 -165 343 C-164.50048828 343.92441895 -164.00097656 344.84883789 -163.48632812 345.80126953 C-156.19797852 359.26560826 -148.32372469 371.85595272 -139 384 C-138.52852539 384.62165039 -138.05705078 385.24330078 -137.57128906 385.88378906 C-122.49627503 405.73059604 -105.73631014 424.68020682 -86 440 C-84.8474223 440.99221906 -83.70097786 441.9916339 -82.5625 443 C-60.85793424 461.71438806 -35.48979212 476.18401243 -10 489 C-9.05072632 489.59905151 -9.05072632 489.59905151 -8.08227539 490.21020508 C-3.97480157 491.76814596 -0.5628116 490.24514903 3.3046875 488.56054688 C4.49934319 487.95551913 5.6892633 487.34107568 6.875 486.71875 C7.52138428 486.38637329 8.16776855 486.05399658 8.83374023 485.71154785 C10.20065197 485.00605828 11.565449 484.29645801 12.92822266 483.58300781 C14.96080067 482.52049119 17.0010675 481.47415093 19.04296875 480.4296875 C28.04882632 475.78051827 36.56368924 470.60924194 45 465 C46.39633911 464.09382386 47.79331243 463.18862278 49.19140625 462.28515625 C57.42714421 456.88118729 65.29753748 451.13836094 73 445 C74.43666016 443.8553125 74.43666016 443.8553125 75.90234375 442.6875 C85.82842362 434.66867531 95.04849646 426.08690444 104 417 C108.5061169 412.47349343 108.5061169 412.47349343 110.703125 410.3671875 C115.95368162 405.30225661 120.44453263 399.68637011 125 394 C125.61359375 393.26523437 126.2271875 392.53046875 126.859375 391.7734375 C139.63538904 376.32210428 149.94969053 359.50071658 159.44287109 341.88818359 C160.8611288 339.25758016 162.29663213 336.63736095 163.73828125 334.01953125 C164.53512563 332.55537876 165.33079583 331.0905863 166.125 329.625 C166.46700439 329.00278564 166.80900879 328.38057129 167.16137695 327.73950195 C169.5287645 323.29090766 171.26144041 318.72463798 172.9375 313.97607422 C174.42743856 309.80273989 176.0454 305.68222645 177.65332031 301.55322266 C179.7946168 296.04528702 181.8977221 290.52291803 184 285 C184.42079834 283.90896973 184.42079834 283.90896973 184.85009766 282.79589844 C189.41185685 270.84949353 191.64700223 258.29282481 194.19873047 245.80102539 C194.76867177 243.09736416 195.35810589 240.40494037 195.97705078 237.71264648 C206.66932601 191.19066769 214.45497207 122.3649162 199 76 C198.30479248 75.89042969 197.60958496 75.78085938 196.89331055 75.66796875 C180.07652934 72.98056108 163.51527557 69.68182391 146.9440918 65.76757812 C145.53306564 65.43478865 144.12201486 65.10210355 142.7109375 64.76953125 C142.0414357 64.61114777 141.3719339 64.45276428 140.68214417 64.2895813 C135.79033821 63.14651204 130.88630123 62.20459697 125.92822266 61.40112305 C124 61 124 61 123 60 C121.39198839 59.68101537 119.77537293 59.40513475 118.15625 59.1484375 C112.10515905 58.08735495 106.35468544 56.46737375 100.5 54.625 C99.40196045 54.28194824 98.3039209 53.93889648 97.17260742 53.58544922 C74.48955286 46.42171991 51.91378368 39.05399019 30.296875 29.05395508 C28.04121636 28.01891274 25.76937087 27.02956638 23.4921875 26.04296875 C17.74475823 23.49794903 12.26523393 20.46167725 6.75390625 17.44726562 C5.95339844 17.01736328 5.15289062 16.58746094 4.328125 16.14453125 C3.6155957 15.75628174 2.90306641 15.36803223 2.16894531 14.96801758 C-1.95944634 13.12548348 -4.78881396 12.40039511 -8.80078125 14.703125 Z " fill="#040404" transform="translate(259,4)"/>
<path d="M0 0 C2.64 0 5.28 0 8 0 C8 8.58 8 17.16 8 26 C13.61 26 19.22 26 25 26 C25 83.75 25 141.5 25 201 C19.39 201 13.78 201 8 201 C8 209.91 8 218.82 8 228 C5.36 228 2.72 228 0 228 C0 219.09 0 210.18 0 201 C-5.61 201 -11.22 201 -17 201 C-17 143.25 -17 85.5 -17 26 C-11.39 26 -5.78 26 0 26 C0 17.42 0 8.84 0 0 Z " fill="#FBFBFB" transform="translate(252,127)"/>
<path d="M0 0 C2.64 0 5.28 0 8 0 C8 7.92 8 15.84 8 24 C12.62 24 17.24 24 22 24 C22 53.37 22 82.74 22 113 C17.38 113 12.76 113 8 113 C8 121.25 8 129.5 8 138 C5.36 138 2.72 138 0 138 C0 129.75 0 121.5 0 113 C-4.62 113 -9.24 113 -14 113 C-14 83.63 -14 54.26 -14 24 C-9.38 24 -4.76 24 0 24 C0 16.08 0 8.16 0 0 Z " fill="#F8F8F8" transform="translate(188,172)"/>
<path d="M0 0 C2.64 0 5.28 0 8 0 C8 7.59 8 15.18 8 23 C12.29 23 16.58 23 21 23 C21 50.06 21 77.12 21 105 C16.38 105 11.76 105 7 105 C7 112.26 7 119.52 7 127 C4.69 127 2.38 127 0 127 C0 119.74 0 112.48 0 105 C-4.29 105 -8.58 105 -13 105 C-13 77.94 -13 50.88 -13 23 C-8.71 23 -4.42 23 0 23 C0 15.41 0 7.82 0 0 Z " fill="#F7F7F7" transform="translate(315,177)"/>
</svg>
